<?xml version="1.0" encoding="UTF-8" standalone="no"?>
<svg
   xmlns:dc="http://purl.org/dc/elements/1.1/"
   xmlns:cc="http://creativecommons.org/ns#"
   xmlns:rdf="http://www.w3.org/1999/02/22-rdf-syntax-ns#"
   xmlns:svg="http://www.w3.org/2000/svg"
   xmlns="http://www.w3.org/2000/svg"
   xmlns:sodipodi="http://sodipodi.sourceforge.net/DTD/sodipodi-0.dtd"
   xmlns:inkscape="http://www.inkscape.org/namespaces/inkscape"
   width="93pt"
   height="75pt"
   viewBox="0 0 93 75"
   version="1.1"
   id="svg2"
   inkscape:version="0.48.2 r9819"
   sodipodi:docname="gallery.svg">
  <metadata
     id="metadata58">
    <rdf:RDF>
      <cc:Work
         rdf:about="">
        <dc:format>image/svg+xml</dc:format>
        <dc:type
           rdf:resource="http://purl.org/dc/dcmitype/StillImage" />
      </cc:Work>
    </rdf:RDF>
  </metadata>
  <defs
     id="defs56" />
  <sodipodi:namedview
     pagecolor="#ffffff"
     bordercolor="#666666"
     borderopacity="1"
     objecttolerance="10"
     gridtolerance="10"
     guidetolerance="10"
     inkscape:pageopacity="0"
     inkscape:pageshadow="2"
     inkscape:window-width="1280"
     inkscape:window-height="706"
     id="namedview54"
     showgrid="false"
     inkscape:zoom="20.094624"
     inkscape:cx="135.44927"
     inkscape:cy="89.778676"
     inkscape:window-x="-8"
     inkscape:window-y="-8"
     inkscape:window-maximized="1"
     inkscape:current-layer="svg2" />
  <g
     id="#a8d1eaff">
    <path
       fill="#a8d1ea"
       opacity="1.00"
       d=" M 83.35 1.47 C 83.92 1.46 85.08 1.42 85.66 1.41 L 85.69 2.39 L 86.42 2.25 C 86.57 2.93 86.89 4.30 87.05 4.98 C 85.86 5.90 84.61 6.74 83.46 7.71 C 83.01 6.02 82.75 4.25 81.65 2.83 C 82.08 2.68 82.95 2.40 83.38 2.26 L 83.35 1.47 Z"
       id="path5" />
  </g>
  <g
     id="#d8e9f5ff">
    <path
       fill="#d8e9f5"
       opacity="1.00"
       d=" M 29.38 17.38 C 35.03 12.82 39.78 7.30 44.99 2.28 C 49.05 6.94 53.78 10.91 58.67 14.66 C 57.69 15.37 56.71 16.08 55.72 16.77 C 45.22 23.29 34.29 29.11 23.64 35.38 C 28.41 45.74 34.80 55.24 40.32 65.19 C 44.28 63.26 48.16 61.17 51.94 58.91 C 63.88 51.80 76.10 45.17 87.99 37.97 C 86.23 34.94 84.51 31.87 83.09 28.67 C 82.48 27.28 81.89 25.89 81.28 24.51 C 81.69 24.16 82.51 23.46 82.92 23.11 C 86.19 28.28 89.03 33.75 93.00 38.46 L 93.00 39.45 C 90.74 40.71 88.52 42.03 86.27 43.30 C 81.89 45.11 77.57 47.09 73.56 49.64 C 64.87 55.05 55.90 59.97 47.11 65.21 C 44.59 66.69 41.98 68.01 39.36 69.31 C 37.97 67.12 36.58 64.93 35.23 62.71 C 29.65 53.69 25.19 43.96 18.72 35.52 C 21.17 33.26 23.97 31.43 26.88 29.82 C 35.85 24.92 44.55 19.54 53.53 14.65 C 50.50 12.18 47.61 9.56 44.81 6.84 C 37.66 12.98 30.92 19.59 23.98 25.97 C 17.57 31.98 10.99 37.80 4.76 44.00 C 12.33 52.46 20.09 60.76 28.02 68.89 C 29.74 67.55 31.46 66.21 33.20 64.88 C 33.54 65.46 34.22 66.60 34.56 67.18 C 32.47 69.29 30.35 71.37 28.21 73.43 C 26.67 72.40 25.12 71.39 23.63 70.29 C 18.96 65.31 13.91 60.70 9.51 55.48 C 7.07 52.50 3.94 50.05 2.04 46.66 C 1.10 44.84 2.57 43.03 3.67 41.69 C 7.41 37.42 11.67 33.64 16.02 30.00 C 20.69 26.03 24.60 21.24 29.38 17.38 Z"
       id="path8" />
  </g>
  <g
     id="#7fbce2ff">
    <path
       fill="#7fbce2"
       opacity="1.00"
       d=" M 67.85 3.89 C 69.83 3.40 71.38 2.03 73.15 1.73 C 73.79 3.14 74.43 4.54 75.07 5.95 C 74.12 6.30 73.34 6.83 72.74 7.54 C 72.13 7.57 70.92 7.62 70.31 7.65 C 69.52 6.36 69.20 4.77 67.85 3.89 Z"
       id="path11" />
    <path
       fill="#7fbce2"
       opacity="1.00"
       d=" M 74.39 13.48 C 75.83 12.71 77.29 11.97 78.63 11.04 C 78.33 12.59 80.01 13.54 80.26 15.07 C 79.10 16.21 77.52 16.82 76.20 17.74 C 75.74 17.23 74.83 16.20 74.38 15.69 C 74.38 15.14 74.39 14.03 74.39 13.48 Z"
       id="path13" />
  </g>
  <g
     id="#6eadd2ff">
    <path
       fill="#6eadd2"
       opacity="1.00"
       d=" M 23.98 25.97 C 30.92 19.59 37.66 12.98 44.81 6.84 C 47.61 9.56 50.50 12.18 53.53 14.65 C 44.55 19.54 35.85 24.92 26.88 29.82 C 23.97 31.43 21.17 33.26 18.72 35.52 C 18.68 38.24 19.27 40.95 20.66 43.30 C 24.66 50.29 28.61 57.31 32.79 64.20 L 33.20 64.88 C 31.46 66.21 29.74 67.55 28.02 68.89 C 20.09 60.76 12.33 52.46 4.76 44.00 C 10.99 37.80 17.57 31.98 23.98 25.97 Z"
       id="path16" />
    <path
       fill="#6eadd2"
       opacity="1.00"
       d=" M 23.64 35.38 C 34.29 29.11 45.22 23.29 55.72 16.77 C 56.57 18.52 57.42 20.27 58.28 22.02 C 56.85 23.07 55.44 24.13 54.02 25.19 C 54.69 26.72 55.36 28.25 56.03 29.78 C 54.63 30.87 53.23 31.97 51.83 33.07 C 52.63 34.67 53.44 36.27 54.24 37.87 C 55.95 36.95 57.66 36.04 59.37 35.13 C 60.28 36.68 61.19 38.24 62.09 39.81 C 63.75 39.08 65.40 38.36 67.06 37.64 C 66.36 35.69 65.66 33.75 64.95 31.82 C 66.30 31.15 67.63 30.46 68.95 29.73 C 70.38 28.93 71.80 28.09 73.22 27.26 C 73.86 27.76 74.49 28.26 75.13 28.77 C 75.47 29.89 75.82 31.01 76.16 32.13 C 74.78 32.75 73.40 33.36 72.01 33.96 C 72.79 35.62 73.57 37.27 74.35 38.93 C 76.21 38.20 78.09 37.48 79.96 36.77 C 79.15 35.01 78.34 33.25 77.53 31.49 C 79.40 30.58 81.24 29.62 83.09 28.67 C 84.51 31.87 86.23 34.94 87.99 37.97 C 76.10 45.17 63.88 51.80 51.94 58.91 C 48.16 61.17 44.28 63.26 40.32 65.19 C 34.80 55.24 28.41 45.74 23.64 35.38 Z"
       id="path18" />
    <path
       fill="#6eadd2"
       opacity="1.00"
       d=" M 64.56 19.34 C 65.98 18.64 67.39 17.90 68.80 17.17 C 69.41 18.74 70.01 20.31 70.62 21.89 C 69.29 22.67 67.96 23.45 66.63 24.23 C 65.94 22.60 65.25 20.97 64.56 19.34 Z"
       id="path20" />
  </g>
  <g
     id="#dbebf6ff">
    <path
       fill="#dbebf6"
       opacity="1.00"
       d=" M 68.42 12.12 C 69.82 11.69 70.31 12.18 69.89 13.58 C 68.49 14.00 68.00 13.51 68.42 12.12 Z"
       id="path23" />
  </g>
  <g
     id="#a7d0e9ff">
    <path
       fill="#a7d0e9"
       opacity="1.00"
       d=" M 58.67 14.66 C 60.46 16.15 61.46 18.32 62.77 20.21 C 61.49 20.82 60.21 21.44 58.93 22.05 C 59.80 23.71 60.67 25.36 61.54 27.01 L 61.88 27.66 C 60.17 28.55 58.46 29.45 56.75 30.34 C 57.63 31.67 58.51 33.01 59.38 34.34 C 61.02 33.62 62.65 32.90 64.27 32.14 L 64.95 31.82 C 65.66 33.75 66.36 35.69 67.06 37.64 C 65.40 38.36 63.75 39.08 62.09 39.81 C 61.19 38.24 60.28 36.68 59.37 35.13 C 57.66 36.04 55.95 36.95 54.24 37.87 C 53.44 36.27 52.63 34.67 51.83 33.07 C 53.23 31.97 54.63 30.87 56.03 29.78 C 55.36 28.25 54.69 26.72 54.02 25.19 C 55.44 24.13 56.85 23.07 58.28 22.02 C 57.42 20.27 56.57 18.52 55.72 16.77 C 56.71 16.08 57.69 15.37 58.67 14.66 Z"
       id="path26" />
    <path
       fill="#a7d0e9"
       opacity="1.00"
       d=" M 72.01 33.96 C 73.40 33.36 74.78 32.75 76.16 32.13 C 76.50 31.97 77.19 31.65 77.53 31.49 C 78.34 33.25 79.15 35.01 79.96 36.77 C 78.09 37.48 76.21 38.20 74.35 38.93 C 73.57 37.27 72.79 35.62 72.01 33.96 Z"
       id="path28" />
  </g>
  <g
     id="#d9eaf5ff">
    <path
       fill="#d9eaf5"
       opacity="1.00"
       d=" M 62.77 20.21 C 63.22 19.99 64.11 19.56 64.56 19.34 C 65.25 20.97 65.94 22.60 66.63 24.23 L 66.92 24.91 C 65.12 25.60 63.33 26.30 61.54 27.01 C 60.67 25.36 59.80 23.71 58.93 22.05 C 60.21 21.44 61.49 20.82 62.77 20.21 Z"
       id="path31" />
  </g>
  <g
     id="#72afd4ff">
    <path
       fill="#72afd4"
       opacity="1.00"
       d=" M 71.94 21.45 C 73.38 20.97 74.83 20.47 76.27 19.97 C 76.44 20.26 76.79 20.85 76.96 21.15 C 77.12 21.77 77.44 23.03 77.60 23.65 C 76.31 24.23 75.03 24.81 73.75 25.39 C 73.15 24.07 72.54 22.76 71.94 21.45 Z"
       id="path34" />
  </g>
  <g
     id="#a7d0eaff">
    <path
       fill="#a7d0ea"
       opacity="1.00"
       d=" M 76.96 21.15 C 77.54 21.96 78.14 22.76 78.75 23.56 C 77.27 24.41 75.80 25.26 74.32 26.11 C 74.52 26.78 74.93 28.10 75.13 28.77 C 74.49 28.26 73.86 27.76 73.22 27.26 C 71.80 28.09 70.38 28.93 68.95 29.73 C 68.27 28.12 67.60 26.51 66.92 24.91 L 66.63 24.23 C 67.96 23.45 69.29 22.67 70.62 21.89 C 70.95 21.78 71.61 21.56 71.94 21.45 C 72.54 22.76 73.15 24.07 73.75 25.39 C 75.03 24.81 76.31 24.23 77.60 23.65 C 77.44 23.03 77.12 21.77 76.96 21.15 Z"
       id="path37" />
  </g>
  <g
     id="#fefefeff">
    <path
       fill="#fefefe"
       opacity="1.00"
       d=" M 61.54 27.01 C 63.33 26.30 65.12 25.60 66.92 24.91 C 67.60 26.51 68.27 28.12 68.95 29.73 C 67.63 30.46 66.30 31.15 64.95 31.82 L 64.27 32.14 C 63.47 30.65 62.68 29.16 61.88 27.66 L 61.54 27.01 Z"
       id="path40" />
  </g>
  <g
     id="#70aed3ff">
    <path
       fill="#70aed3"
       opacity="1.00"
       d=" M 56.75 30.34 C 58.46 29.45 60.17 28.55 61.88 27.66 C 62.68 29.16 63.47 30.65 64.27 32.14 C 62.65 32.90 61.02 33.62 59.38 34.34 C 58.51 33.01 57.63 31.67 56.75 30.34 Z"
       id="path43" />
  </g>
  <g
     id="#819fbbff">
    <path
       fill="#819fbb"
       opacity="1.00"
       d=" M 18.72 35.52 C 25.19 43.96 29.65 53.69 35.23 62.71 C 34.62 63.08 33.40 63.82 32.79 64.20 C 28.61 57.31 24.66 50.29 20.66 43.30 C 19.27 40.95 18.68 38.24 18.72 35.52 Z"
       id="path46" />
  </g>
  <g
     id="#afbec7ff">
    <path
       fill="#afbec7"
       opacity="1.00"
       d=" M 73.56 49.64 C 77.57 47.09 81.89 45.11 86.27 43.30 C 78.00 48.85 69.17 53.47 60.72 58.74 C 54.75 62.10 48.96 65.76 43.01 69.13 C 40.40 70.81 37.32 69.53 34.48 69.67 C 32.16 71.04 30.48 73.21 28.51 75.00 L 27.08 75.00 C 25.94 73.42 24.82 71.83 23.63 70.29 C 25.12 71.39 26.67 72.40 28.21 73.43 C 30.35 71.37 32.47 69.29 34.56 67.18 C 34.22 66.60 33.54 65.46 33.20 64.88 L 32.79 64.20 C 33.40 63.82 34.62 63.08 35.23 62.71 C 36.58 64.93 37.97 67.12 39.36 69.31 C 41.98 68.01 44.59 66.69 47.11 65.21 C 55.90 59.97 64.87 55.05 73.56 49.64 Z"
       id="path49" />
  </g>
</svg>
